<svg width="340" height="56" viewBox="0 0 340 56" fill="none" xmlns="http://www.w3.org/2000/svg" role="img" aria-label="GitHub activity sparkline">
  <path d="M 6.00,40.00 L 6.00,39.24 Q 12.56,39.24 19.12,38.49 Q 25.68,38.49 32.24,40.00 Q 38.80,40.00 45.36,40.00 Q 51.92,40.00 58.48,40.00 Q 65.04,40.00 71.60,21.11 Q 78.16,21.11 84.72,34.71 Q 91.28,34.71 97.84,36.98 Q 104.40,36.98 110.96,22.62 Q 117.52,22.62 124.08,37.73 Q 130.64,37.73 137.20,27.91 Q 143.76,27.91 150.32,36.98 Q 156.88,36.98 163.44,39.24 Q 170.00,39.24 176.56,35.47 Q 183.12,35.47 189.68,33.20 Q 196.24,33.20 202.80,36.98 Q 209.36,36.98 215.92,36.22 Q 222.48,36.22 229.04,28.67 Q 235.60,28.67 242.16,30.93 Q 248.72,30.93 255.28,27.91 Q 261.84,27.91 268.40,30.18 Q 274.96,30.18 281.52,27.91 Q 288.08,27.91 294.64,35.47 Q 301.20,35.47 307.76,6.00 Q 314.32,6.00 320.88,36.22 Q 327.44,36.22 334.00,30.93 L 334.00,40.00 Z" fill="#2da44e" fill-opacity="0.12"/>
  <path d="M 6.00,39.24 Q 12.56,39.24 19.12,38.49 Q 25.68,38.49 32.24,40.00 Q 38.80,40.00 45.36,40.00 Q 51.92,40.00 58.48,40.00 Q 65.04,40.00 71.60,21.11 Q 78.16,21.11 84.72,34.71 Q 91.28,34.71 97.84,36.98 Q 104.40,36.98 110.96,22.62 Q 117.52,22.62 124.08,37.73 Q 130.64,37.73 137.20,27.91 Q 143.76,27.91 150.32,36.98 Q 156.88,36.98 163.44,39.24 Q 170.00,39.24 176.56,35.47 Q 183.12,35.47 189.68,33.20 Q 196.24,33.20 202.80,36.98 Q 209.36,36.98 215.92,36.22 Q 222.48,36.22 229.04,28.67 Q 235.60,28.67 242.16,30.93 Q 248.72,30.93 255.28,27.91 Q 261.84,27.91 268.40,30.18 Q 274.96,30.18 281.52,27.91 Q 288.08,27.91 294.64,35.47 Q 301.20,35.47 307.76,6.00 Q 314.32,6.00 320.88,36.22 Q 327.44,36.22 334.00,30.93" stroke="#2da44e" stroke-width="1.8" stroke-linecap="round" stroke-linejoin="round" fill="none"/>
</svg>