<svg width="180" height="30" viewBox="0 0 180 30" fill="none" xmlns="http://www.w3.org/2000/svg" role="img" aria-label="GitHub activity sparkline">
  <defs>
    <linearGradient id="sparkGradient" x1="3" y1="0" x2="177" y2="0" gradientUnits="userSpaceOnUse">
      <stop offset="0.00%" stop-color="#2d4a2e"/>
      <stop offset="1.96%" stop-color="#2d4a2e"/>
      <stop offset="3.92%" stop-color="#2f4c2f"/>
      <stop offset="5.88%" stop-color="#335234"/>
      <stop offset="7.84%" stop-color="#2c482d"/>
      <stop offset="9.80%" stop-color="#2d4a2e"/>
      <stop offset="11.76%" stop-color="#2c482d"/>
      <stop offset="13.73%" stop-color="#365536"/>
      <stop offset="15.69%" stop-color="#314f31"/>
      <stop offset="17.65%" stop-color="#2f4c2f"/>
      <stop offset="19.61%" stop-color="#325032"/>
      <stop offset="21.57%" stop-color="#365536"/>
      <stop offset="23.53%" stop-color="#2f4d30"/>
      <stop offset="25.49%" stop-color="#395938"/>
      <stop offset="27.45%" stop-color="#3a5b3a"/>
      <stop offset="29.41%" stop-color="#345334"/>
      <stop offset="31.37%" stop-color="#355435"/>
      <stop offset="33.33%" stop-color="#2f4c2f"/>
      <stop offset="35.29%" stop-color="#2f4c2f"/>
      <stop offset="37.25%" stop-color="#314f31"/>
      <stop offset="39.22%" stop-color="#314f31"/>
      <stop offset="41.18%" stop-color="#2e4b2f"/>
      <stop offset="43.14%" stop-color="#304e31"/>
      <stop offset="45.10%" stop-color="#2f4c2f"/>
      <stop offset="47.06%" stop-color="#325032"/>
      <stop offset="49.02%" stop-color="#2e4b2f"/>
      <stop offset="50.98%" stop-color="#2d4a2e"/>
      <stop offset="52.94%" stop-color="#2c482d"/>
      <stop offset="54.90%" stop-color="#2c492d"/>
      <stop offset="56.86%" stop-color="#4c7249"/>
      <stop offset="58.82%" stop-color="#355435"/>
      <stop offset="60.78%" stop-color="#314f31"/>
      <stop offset="62.75%" stop-color="#446842"/>
      <stop offset="64.71%" stop-color="#355435"/>
      <stop offset="66.67%" stop-color="#3a5a39"/>
      <stop offset="68.63%" stop-color="#2f4c2f"/>
      <stop offset="70.59%" stop-color="#2c492d"/>
      <stop offset="72.55%" stop-color="#325032"/>
      <stop offset="74.51%" stop-color="#365636"/>
      <stop offset="76.47%" stop-color="#2f4c2f"/>
      <stop offset="78.43%" stop-color="#2f4d30"/>
      <stop offset="80.39%" stop-color="#395938"/>
      <stop offset="82.35%" stop-color="#355435"/>
      <stop offset="84.31%" stop-color="#385838"/>
      <stop offset="86.27%" stop-color="#365536"/>
      <stop offset="88.24%" stop-color="#385838"/>
      <stop offset="90.20%" stop-color="#325032"/>
      <stop offset="92.16%" stop-color="#669561"/>
      <stop offset="94.12%" stop-color="#3c5d3b"/>
      <stop offset="96.08%" stop-color="#3d5e3c"/>
      <stop offset="98.04%" stop-color="#4d744b"/>
      <stop offset="100.00%" stop-color="#2c482d"/>
    </linearGradient>
  </defs>
  <line x1="3" y1="30" x2="177" y2="30" stroke="#30363d" stroke-width="0.8"/>
  <path d="M 3.00,30.00 L 3.00,29.19 L 6.41,29.19 L 9.82,28.38 L 13.24,25.95 L 16.65,30.00 L 20.06,29.19 L 23.47,30.00 L 26.88,24.73 L 30.29,27.16 L 33.71,28.38 L 37.12,26.76 L 40.53,24.73 L 43.94,27.97 L 47.35,23.11 L 50.76,22.30 L 54.18,25.54 L 57.59,25.14 L 61.00,28.38 L 64.41,28.38 L 67.82,27.16 L 71.24,27.16 L 74.65,28.78 L 78.06,27.57 L 81.47,28.38 L 84.88,26.76 L 88.29,28.78 L 91.71,29.19 L 95.12,30.00 L 98.53,29.59 L 101.94,13.38 L 105.35,25.14 L 108.76,27.16 L 112.18,17.43 L 115.59,25.14 L 119.00,22.70 L 122.41,28.38 L 125.82,29.59 L 129.24,26.76 L 132.65,24.32 L 136.06,28.38 L 139.47,27.97 L 142.88,23.11 L 146.29,25.14 L 149.71,23.51 L 153.12,24.73 L 156.53,23.51 L 159.94,26.76 L 163.35,0.00 L 166.76,21.49 L 170.18,21.08 L 173.59,12.57 L 177.00,30.00 L 177.00,30.00 Z" fill="#2ea043" fill-opacity="0.04"/>
  <path d="M 3.00,29.19 L 6.41,29.19 L 9.82,28.38 L 13.24,25.95 L 16.65,30.00 L 20.06,29.19 L 23.47,30.00 L 26.88,24.73 L 30.29,27.16 L 33.71,28.38 L 37.12,26.76 L 40.53,24.73 L 43.94,27.97 L 47.35,23.11 L 50.76,22.30 L 54.18,25.54 L 57.59,25.14 L 61.00,28.38 L 64.41,28.38 L 67.82,27.16 L 71.24,27.16 L 74.65,28.78 L 78.06,27.57 L 81.47,28.38 L 84.88,26.76 L 88.29,28.78 L 91.71,29.19 L 95.12,30.00 L 98.53,29.59 L 101.94,13.38 L 105.35,25.14 L 108.76,27.16 L 112.18,17.43 L 115.59,25.14 L 119.00,22.70 L 122.41,28.38 L 125.82,29.59 L 129.24,26.76 L 132.65,24.32 L 136.06,28.38 L 139.47,27.97 L 142.88,23.11 L 146.29,25.14 L 149.71,23.51 L 153.12,24.73 L 156.53,23.51 L 159.94,26.76 L 163.35,0.00 L 166.76,21.49 L 170.18,21.08 L 173.59,12.57 L 177.00,30.00" stroke="url(#sparkGradient)" stroke-width="2.5" stroke-linecap="round" stroke-linejoin="round" fill="none"/>
</svg>