<svg width="180" height="30" viewBox="0 0 180 30" fill="none" xmlns="http://www.w3.org/2000/svg" role="img" aria-label="GitHub activity sparkline">
  <defs>
    <linearGradient id="sparkGradient" x1="3" y1="0" x2="177" y2="0" gradientUnits="userSpaceOnUse">
      <stop offset="0.00%" stop-color="#2d4a2e"/>
      <stop offset="1.96%" stop-color="#2f4c2f"/>
      <stop offset="3.92%" stop-color="#314e31"/>
      <stop offset="5.88%" stop-color="#2d4a2e"/>
      <stop offset="7.84%" stop-color="#325032"/>
      <stop offset="9.80%" stop-color="#335133"/>
      <stop offset="11.76%" stop-color="#304d30"/>
      <stop offset="13.73%" stop-color="#304e31"/>
      <stop offset="15.69%" stop-color="#2d4a2e"/>
      <stop offset="17.65%" stop-color="#2d4a2e"/>
      <stop offset="19.61%" stop-color="#2e4b2f"/>
      <stop offset="21.57%" stop-color="#2e4b2f"/>
      <stop offset="23.53%" stop-color="#2d492e"/>
      <stop offset="25.49%" stop-color="#2e4b2f"/>
      <stop offset="27.45%" stop-color="#2d4a2e"/>
      <stop offset="29.41%" stop-color="#2f4c2f"/>
      <stop offset="31.37%" stop-color="#2d492e"/>
      <stop offset="33.33%" stop-color="#2c492d"/>
      <stop offset="35.29%" stop-color="#2c482d"/>
      <stop offset="37.25%" stop-color="#2c482d"/>
      <stop offset="39.22%" stop-color="#426641"/>
      <stop offset="41.18%" stop-color="#314f32"/>
      <stop offset="43.14%" stop-color="#2e4b2f"/>
      <stop offset="45.10%" stop-color="#385837"/>
      <stop offset="47.06%" stop-color="#304e31"/>
      <stop offset="49.02%" stop-color="#345234"/>
      <stop offset="50.98%" stop-color="#2d4a2e"/>
      <stop offset="52.94%" stop-color="#2c482d"/>
      <stop offset="54.90%" stop-color="#2f4d30"/>
      <stop offset="56.86%" stop-color="#314f31"/>
      <stop offset="58.82%" stop-color="#2d4a2e"/>
      <stop offset="60.78%" stop-color="#2d4a2e"/>
      <stop offset="62.75%" stop-color="#325032"/>
      <stop offset="64.71%" stop-color="#314e31"/>
      <stop offset="66.67%" stop-color="#335133"/>
      <stop offset="68.63%" stop-color="#314e31"/>
      <stop offset="70.59%" stop-color="#325032"/>
      <stop offset="72.55%" stop-color="#2f4c2f"/>
      <stop offset="74.51%" stop-color="#4a7048"/>
      <stop offset="76.47%" stop-color="#3a5a39"/>
      <stop offset="78.43%" stop-color="#466b45"/>
      <stop offset="80.39%" stop-color="#476c45"/>
      <stop offset="82.35%" stop-color="#4d734a"/>
      <stop offset="84.31%" stop-color="#345334"/>
      <stop offset="86.27%" stop-color="#2c492d"/>
      <stop offset="88.24%" stop-color="#385837"/>
      <stop offset="90.20%" stop-color="#416440"/>
      <stop offset="92.16%" stop-color="#446842"/>
      <stop offset="94.12%" stop-color="#4e754b"/>
      <stop offset="96.08%" stop-color="#5a8556"/>
      <stop offset="98.04%" stop-color="#527a4f"/>
      <stop offset="100.00%" stop-color="#669561"/>
    </linearGradient>
  </defs>
  <line x1="3" y1="30" x2="177" y2="30" stroke="#30363d" stroke-width="0.8"/>
  <path d="M 3.00,30.00 L 3.00,29.19 L 6.41,28.39 L 9.82,27.38 L 13.24,28.99 L 16.65,26.58 L 20.06,26.17 L 23.47,27.79 L 26.88,27.58 L 30.29,29.19 L 33.71,29.19 L 37.12,28.59 L 40.53,28.59 L 43.94,29.40 L 47.35,28.79 L 50.76,29.19 L 54.18,28.39 L 57.59,29.40 L 61.00,29.60 L 64.41,30.00 L 67.82,29.80 L 71.24,18.12 L 74.65,26.98 L 78.06,28.59 L 81.47,23.76 L 84.88,27.58 L 88.29,25.77 L 91.71,29.19 L 95.12,29.80 L 98.53,27.99 L 101.94,27.18 L 105.35,29.19 L 108.76,28.99 L 112.18,26.58 L 115.59,27.38 L 119.00,26.38 L 122.41,27.38 L 125.82,26.78 L 129.24,28.39 L 132.65,14.09 L 136.06,22.75 L 139.47,16.11 L 142.88,15.70 L 146.29,12.89 L 149.71,25.57 L 153.12,29.60 L 156.53,23.76 L 159.94,18.72 L 163.35,17.52 L 166.76,12.28 L 170.18,6.04 L 173.59,10.27 L 177.00,0.00 L 177.00,30.00 Z" fill="#2ea043" fill-opacity="0.04"/>
  <path d="M 3.00,29.19 L 6.41,28.39 L 9.82,27.38 L 13.24,28.99 L 16.65,26.58 L 20.06,26.17 L 23.47,27.79 L 26.88,27.58 L 30.29,29.19 L 33.71,29.19 L 37.12,28.59 L 40.53,28.59 L 43.94,29.40 L 47.35,28.79 L 50.76,29.19 L 54.18,28.39 L 57.59,29.40 L 61.00,29.60 L 64.41,30.00 L 67.82,29.80 L 71.24,18.12 L 74.65,26.98 L 78.06,28.59 L 81.47,23.76 L 84.88,27.58 L 88.29,25.77 L 91.71,29.19 L 95.12,29.80 L 98.53,27.99 L 101.94,27.18 L 105.35,29.19 L 108.76,28.99 L 112.18,26.58 L 115.59,27.38 L 119.00,26.38 L 122.41,27.38 L 125.82,26.78 L 129.24,28.39 L 132.65,14.09 L 136.06,22.75 L 139.47,16.11 L 142.88,15.70 L 146.29,12.89 L 149.71,25.57 L 153.12,29.60 L 156.53,23.76 L 159.94,18.72 L 163.35,17.52 L 166.76,12.28 L 170.18,6.04 L 173.59,10.27 L 177.00,0.00" stroke="url(#sparkGradient)" stroke-width="2.5" stroke-linecap="round" stroke-linejoin="round" fill="none"/>
</svg>