<svg width="180" height="30" viewBox="0 0 180 30" fill="none" xmlns="http://www.w3.org/2000/svg" role="img" aria-label="GitHub activity sparkline">
  <defs>
    <linearGradient id="sparkGradient" x1="3" y1="0" x2="177" y2="0" gradientUnits="userSpaceOnUse">
      <stop offset="0.00%" stop-color="#345334"/>
      <stop offset="1.96%" stop-color="#304e31"/>
      <stop offset="3.92%" stop-color="#2e4b2f"/>
      <stop offset="5.88%" stop-color="#314f31"/>
      <stop offset="7.84%" stop-color="#345334"/>
      <stop offset="9.80%" stop-color="#2f4c30"/>
      <stop offset="11.76%" stop-color="#375737"/>
      <stop offset="13.73%" stop-color="#385938"/>
      <stop offset="15.69%" stop-color="#335133"/>
      <stop offset="17.65%" stop-color="#345234"/>
      <stop offset="19.61%" stop-color="#2e4b2f"/>
      <stop offset="21.57%" stop-color="#2e4b2f"/>
      <stop offset="23.53%" stop-color="#304e31"/>
      <stop offset="25.49%" stop-color="#304e31"/>
      <stop offset="27.45%" stop-color="#2e4a2e"/>
      <stop offset="29.41%" stop-color="#304d30"/>
      <stop offset="31.37%" stop-color="#2e4b2f"/>
      <stop offset="33.33%" stop-color="#314f31"/>
      <stop offset="35.29%" stop-color="#2e4a2e"/>
      <stop offset="37.25%" stop-color="#2d492e"/>
      <stop offset="39.22%" stop-color="#2c482d"/>
      <stop offset="41.18%" stop-color="#2c482d"/>
      <stop offset="43.14%" stop-color="#476d46"/>
      <stop offset="45.10%" stop-color="#345234"/>
      <stop offset="47.06%" stop-color="#304e31"/>
      <stop offset="49.02%" stop-color="#41643f"/>
      <stop offset="50.98%" stop-color="#345234"/>
      <stop offset="52.94%" stop-color="#385838"/>
      <stop offset="54.90%" stop-color="#2e4b2f"/>
      <stop offset="56.86%" stop-color="#2c482d"/>
      <stop offset="58.82%" stop-color="#314f31"/>
      <stop offset="60.78%" stop-color="#355435"/>
      <stop offset="62.75%" stop-color="#2e4b2f"/>
      <stop offset="64.71%" stop-color="#2f4c30"/>
      <stop offset="66.67%" stop-color="#375737"/>
      <stop offset="68.63%" stop-color="#345234"/>
      <stop offset="70.59%" stop-color="#365636"/>
      <stop offset="72.55%" stop-color="#345334"/>
      <stop offset="74.51%" stop-color="#365636"/>
      <stop offset="76.47%" stop-color="#314f31"/>
      <stop offset="78.43%" stop-color="#618f5d"/>
      <stop offset="80.39%" stop-color="#446843"/>
      <stop offset="82.35%" stop-color="#5b8657"/>
      <stop offset="84.31%" stop-color="#5b8757"/>
      <stop offset="86.27%" stop-color="#669561"/>
      <stop offset="88.24%" stop-color="#3b5b3a"/>
      <stop offset="90.20%" stop-color="#2d492e"/>
      <stop offset="92.16%" stop-color="#41643f"/>
      <stop offset="94.12%" stop-color="#51794e"/>
      <stop offset="96.08%" stop-color="#557f52"/>
      <stop offset="98.04%" stop-color="#618e5c"/>
      <stop offset="100.00%" stop-color="#2c482d"/>
    </linearGradient>
  </defs>
  <line x1="3" y1="30" x2="177" y2="30" stroke="#30363d" stroke-width="0.8"/>
  <path d="M 3.00,30.00 L 3.00,25.41 L 6.41,27.53 L 9.82,28.59 L 13.24,27.18 L 16.65,25.41 L 20.06,28.24 L 23.47,24.00 L 26.88,23.29 L 30.29,26.12 L 33.71,25.76 L 37.12,28.59 L 40.53,28.59 L 43.94,27.53 L 47.35,27.53 L 50.76,28.94 L 54.18,27.88 L 57.59,28.59 L 61.00,27.18 L 64.41,28.94 L 67.82,29.29 L 71.24,30.00 L 74.65,29.65 L 78.06,15.53 L 81.47,25.76 L 84.88,27.53 L 88.29,19.06 L 91.71,25.76 L 95.12,23.65 L 98.53,28.59 L 101.94,29.65 L 105.35,27.18 L 108.76,25.06 L 112.18,28.59 L 115.59,28.24 L 119.00,24.00 L 122.41,25.76 L 125.82,24.35 L 129.24,25.41 L 132.65,24.35 L 136.06,27.18 L 139.47,2.12 L 142.88,17.29 L 146.29,5.65 L 149.71,5.29 L 153.12,0.00 L 156.53,22.24 L 159.94,29.29 L 163.35,19.06 L 166.76,10.59 L 170.18,8.47 L 173.59,2.47 L 177.00,30.00 L 177.00,30.00 Z" fill="#2ea043" fill-opacity="0.04"/>
  <path d="M 3.00,25.41 L 6.41,27.53 L 9.82,28.59 L 13.24,27.18 L 16.65,25.41 L 20.06,28.24 L 23.47,24.00 L 26.88,23.29 L 30.29,26.12 L 33.71,25.76 L 37.12,28.59 L 40.53,28.59 L 43.94,27.53 L 47.35,27.53 L 50.76,28.94 L 54.18,27.88 L 57.59,28.59 L 61.00,27.18 L 64.41,28.94 L 67.82,29.29 L 71.24,30.00 L 74.65,29.65 L 78.06,15.53 L 81.47,25.76 L 84.88,27.53 L 88.29,19.06 L 91.71,25.76 L 95.12,23.65 L 98.53,28.59 L 101.94,29.65 L 105.35,27.18 L 108.76,25.06 L 112.18,28.59 L 115.59,28.24 L 119.00,24.00 L 122.41,25.76 L 125.82,24.35 L 129.24,25.41 L 132.65,24.35 L 136.06,27.18 L 139.47,2.12 L 142.88,17.29 L 146.29,5.65 L 149.71,5.29 L 153.12,0.00 L 156.53,22.24 L 159.94,29.29 L 163.35,19.06 L 166.76,10.59 L 170.18,8.47 L 173.59,2.47 L 177.00,30.00" stroke="url(#sparkGradient)" stroke-width="2.5" stroke-linecap="round" stroke-linejoin="round" fill="none"/>
</svg>