<svg width="380" height="78" viewBox="0 0 380 78" fill="none" xmlns="http://www.w3.org/2000/svg" role="img" aria-label="GitHub activity sparkline">
  <line x1="12" y1="54" x2="368" y2="54" stroke="#30363d" stroke-width="1"/>
  <path d="M 12.00,54.00 L 12.00,53.02 Q 19.12,53.02 26.24,52.04 Q 33.36,52.04 40.48,54.00 Q 47.60,54.00 54.72,54.00 Q 61.84,54.00 68.96,54.00 Q 76.08,54.00 83.20,29.56 Q 90.32,29.56 97.44,47.16 Q 104.56,47.16 111.68,50.09 Q 118.80,50.09 125.92,31.51 Q 133.04,31.51 140.16,51.07 Q 147.28,51.07 154.40,38.36 Q 161.52,38.36 168.64,50.09 Q 175.76,50.09 182.88,53.02 Q 190.00,53.02 197.12,48.13 Q 204.24,48.13 211.36,45.20 Q 218.48,45.20 225.60,50.09 Q 232.72,50.09 239.84,49.11 Q 246.96,49.11 254.08,39.33 Q 261.20,39.33 268.32,42.27 Q 275.44,42.27 282.56,38.36 Q 289.68,38.36 296.80,41.29 Q 303.92,41.29 311.04,38.36 Q 318.16,38.36 325.28,48.13 Q 332.40,48.13 339.52,10.00 Q 346.64,10.00 353.76,49.11 Q 360.88,49.11 368.00,41.29 L 368.00,54.00 Z" fill="#2ea043" fill-opacity="0.08"/>
  <path d="M 12.00,53.02 Q 19.12,53.02 26.24,52.04" stroke="#1f6f3d" stroke-width="1.9" stroke-linecap="round" stroke-linejoin="round" fill="none"/>
  <path d="M 26.24,52.04 Q 33.36,52.04 40.48,54.00" stroke="#1f6f3d" stroke-width="1.9" stroke-linecap="round" stroke-linejoin="round" fill="none"/>
  <path d="M 40.48,54.00 Q 47.60,54.00 54.72,54.00" stroke="#1f6f3d" stroke-width="1.9" stroke-linecap="round" stroke-linejoin="round" fill="none"/>
  <path d="M 54.72,54.00 Q 61.84,54.00 68.96,54.00" stroke="#1f6f3d" stroke-width="1.9" stroke-linecap="round" stroke-linejoin="round" fill="none"/>
  <path d="M 68.96,54.00 Q 76.08,54.00 83.20,29.56" stroke="#3fb950" stroke-width="1.9" stroke-linecap="round" stroke-linejoin="round" fill="none"/>
  <path d="M 83.20,29.56 Q 90.32,29.56 97.44,47.16" stroke="#3fb950" stroke-width="1.9" stroke-linecap="round" stroke-linejoin="round" fill="none"/>
  <path d="M 97.44,47.16 Q 104.56,47.16 111.68,50.09" stroke="#238636" stroke-width="1.9" stroke-linecap="round" stroke-linejoin="round" fill="none"/>
  <path d="M 111.68,50.09 Q 118.80,50.09 125.92,31.51" stroke="#2ea043" stroke-width="1.9" stroke-linecap="round" stroke-linejoin="round" fill="none"/>
  <path d="M 125.92,31.51 Q 133.04,31.51 140.16,51.07" stroke="#2ea043" stroke-width="1.9" stroke-linecap="round" stroke-linejoin="round" fill="none"/>
  <path d="M 140.16,51.07 Q 147.28,51.07 154.40,38.36" stroke="#2ea043" stroke-width="1.9" stroke-linecap="round" stroke-linejoin="round" fill="none"/>
  <path d="M 154.40,38.36 Q 161.52,38.36 168.64,50.09" stroke="#2ea043" stroke-width="1.9" stroke-linecap="round" stroke-linejoin="round" fill="none"/>
  <path d="M 168.64,50.09 Q 175.76,50.09 182.88,53.02" stroke="#1f6f3d" stroke-width="1.9" stroke-linecap="round" stroke-linejoin="round" fill="none"/>
  <path d="M 182.88,53.02 Q 190.00,53.02 197.12,48.13" stroke="#238636" stroke-width="1.9" stroke-linecap="round" stroke-linejoin="round" fill="none"/>
  <path d="M 197.12,48.13 Q 204.24,48.13 211.36,45.20" stroke="#238636" stroke-width="1.9" stroke-linecap="round" stroke-linejoin="round" fill="none"/>
  <path d="M 211.36,45.20 Q 218.48,45.20 225.60,50.09" stroke="#238636" stroke-width="1.9" stroke-linecap="round" stroke-linejoin="round" fill="none"/>
  <path d="M 225.60,50.09 Q 232.72,50.09 239.84,49.11" stroke="#238636" stroke-width="1.9" stroke-linecap="round" stroke-linejoin="round" fill="none"/>
  <path d="M 239.84,49.11 Q 246.96,49.11 254.08,39.33" stroke="#2ea043" stroke-width="1.9" stroke-linecap="round" stroke-linejoin="round" fill="none"/>
  <path d="M 254.08,39.33 Q 261.20,39.33 268.32,42.27" stroke="#2ea043" stroke-width="1.9" stroke-linecap="round" stroke-linejoin="round" fill="none"/>
  <path d="M 268.32,42.27 Q 275.44,42.27 282.56,38.36" stroke="#2ea043" stroke-width="1.9" stroke-linecap="round" stroke-linejoin="round" fill="none"/>
  <path d="M 282.56,38.36 Q 289.68,38.36 296.80,41.29" stroke="#2ea043" stroke-width="1.9" stroke-linecap="round" stroke-linejoin="round" fill="none"/>
  <path d="M 296.80,41.29 Q 303.92,41.29 311.04,38.36" stroke="#2ea043" stroke-width="1.9" stroke-linecap="round" stroke-linejoin="round" fill="none"/>
  <path d="M 311.04,38.36 Q 318.16,38.36 325.28,48.13" stroke="#2ea043" stroke-width="1.9" stroke-linecap="round" stroke-linejoin="round" fill="none"/>
  <path d="M 325.28,48.13 Q 332.40,48.13 339.52,10.00" stroke="#56d364" stroke-width="1.9" stroke-linecap="round" stroke-linejoin="round" fill="none"/>
  <path d="M 339.52,10.00 Q 346.64,10.00 353.76,49.11" stroke="#56d364" stroke-width="1.9" stroke-linecap="round" stroke-linejoin="round" fill="none"/>
  <path d="M 353.76,49.11 Q 360.88,49.11 368.00,41.29" stroke="#238636" stroke-width="1.9" stroke-linecap="round" stroke-linejoin="round" fill="none"/>
</svg>