<svg width="240" height="32" viewBox="0 0 240 32" fill="none" xmlns="http://www.w3.org/2000/svg" role="img" aria-label="GitHub activity sparkline">
  <line x1="3" y1="28" x2="237" y2="28" stroke="#30363d" stroke-width="0.8"/>
  <path d="M 3.00,28.00 L 3.00,27.44 Q 7.68,27.44 12.36,26.89 Q 17.04,26.89 21.72,28.00 Q 26.40,28.00 31.08,28.00 Q 35.76,28.00 40.44,28.00 Q 45.12,28.00 49.80,14.11 Q 54.48,14.11 59.16,24.11 Q 63.84,24.11 68.52,25.78 Q 73.20,25.78 77.88,15.22 Q 82.56,15.22 87.24,26.33 Q 91.92,26.33 96.60,19.11 Q 101.28,19.11 105.96,25.78 Q 110.64,25.78 115.32,27.44 Q 120.00,27.44 124.68,24.67 Q 129.36,24.67 134.04,23.00 Q 138.72,23.00 143.40,25.78 Q 148.08,25.78 152.76,25.22 Q 157.44,25.22 162.12,19.67 Q 166.80,19.67 171.48,21.33 Q 176.16,21.33 180.84,19.11 Q 185.52,19.11 190.20,20.78 Q 194.88,20.78 199.56,19.11 Q 204.24,19.11 208.92,24.67 Q 213.60,24.67 218.28,3.00 Q 222.96,3.00 227.64,25.22 Q 232.32,25.22 237.00,16.89 L 237.00,28.00 Z" fill="#2ea043" fill-opacity="0.06"/>
  <path d="M 3.00,27.44 Q 7.68,27.44 12.36,26.89" stroke="#29462b" stroke-width="1.35" stroke-linecap="round" stroke-linejoin="round" fill="none"/>
  <path d="M 12.36,26.89 Q 17.04,26.89 21.72,28.00" stroke="#29462b" stroke-width="1.35" stroke-linecap="round" stroke-linejoin="round" fill="none"/>
  <path d="M 21.72,28.00 Q 26.40,28.00 31.08,28.00" stroke="#274029" stroke-width="1.35" stroke-linecap="round" stroke-linejoin="round" fill="none"/>
  <path d="M 31.08,28.00 Q 35.76,28.00 40.44,28.00" stroke="#274029" stroke-width="1.35" stroke-linecap="round" stroke-linejoin="round" fill="none"/>
  <path d="M 40.44,28.00 Q 45.12,28.00 49.80,14.11" stroke="#419149" stroke-width="1.35" stroke-linecap="round" stroke-linejoin="round" fill="none"/>
  <path d="M 49.80,14.11 Q 54.48,14.11 59.16,24.11" stroke="#419149" stroke-width="1.35" stroke-linecap="round" stroke-linejoin="round" fill="none"/>
  <path d="M 59.16,24.11 Q 63.84,24.11 68.52,25.78" stroke="#2e5632" stroke-width="1.35" stroke-linecap="round" stroke-linejoin="round" fill="none"/>
  <path d="M 68.52,25.78 Q 73.20,25.78 77.88,15.22" stroke="#3f8b47" stroke-width="1.35" stroke-linecap="round" stroke-linejoin="round" fill="none"/>
  <path d="M 77.88,15.22 Q 82.56,15.22 87.24,26.33" stroke="#3f8b47" stroke-width="1.35" stroke-linecap="round" stroke-linejoin="round" fill="none"/>
  <path d="M 87.24,26.33 Q 91.92,26.33 96.60,19.11" stroke="#37743d" stroke-width="1.35" stroke-linecap="round" stroke-linejoin="round" fill="none"/>
  <path d="M 96.60,19.11 Q 101.28,19.11 105.96,25.78" stroke="#37743d" stroke-width="1.35" stroke-linecap="round" stroke-linejoin="round" fill="none"/>
  <path d="M 105.96,25.78 Q 110.64,25.78 115.32,27.44" stroke="#2b4d2e" stroke-width="1.35" stroke-linecap="round" stroke-linejoin="round" fill="none"/>
  <path d="M 115.32,27.44 Q 120.00,27.44 124.68,24.67" stroke="#2d5330" stroke-width="1.35" stroke-linecap="round" stroke-linejoin="round" fill="none"/>
  <path d="M 124.68,24.67 Q 129.36,24.67 134.04,23.00" stroke="#305d34" stroke-width="1.35" stroke-linecap="round" stroke-linejoin="round" fill="none"/>
  <path d="M 134.04,23.00 Q 138.72,23.00 143.40,25.78" stroke="#305d34" stroke-width="1.35" stroke-linecap="round" stroke-linejoin="round" fill="none"/>
  <path d="M 143.40,25.78 Q 148.08,25.78 152.76,25.22" stroke="#2c502f" stroke-width="1.35" stroke-linecap="round" stroke-linejoin="round" fill="none"/>
  <path d="M 152.76,25.22 Q 157.44,25.22 162.12,19.67" stroke="#36713c" stroke-width="1.35" stroke-linecap="round" stroke-linejoin="round" fill="none"/>
  <path d="M 162.12,19.67 Q 166.80,19.67 171.48,21.33" stroke="#36713c" stroke-width="1.35" stroke-linecap="round" stroke-linejoin="round" fill="none"/>
  <path d="M 171.48,21.33 Q 176.16,21.33 180.84,19.11" stroke="#37743d" stroke-width="1.35" stroke-linecap="round" stroke-linejoin="round" fill="none"/>
  <path d="M 180.84,19.11 Q 185.52,19.11 190.20,20.78" stroke="#37743d" stroke-width="1.35" stroke-linecap="round" stroke-linejoin="round" fill="none"/>
  <path d="M 190.20,20.78 Q 194.88,20.78 199.56,19.11" stroke="#37743d" stroke-width="1.35" stroke-linecap="round" stroke-linejoin="round" fill="none"/>
  <path d="M 199.56,19.11 Q 204.24,19.11 208.92,24.67" stroke="#37743d" stroke-width="1.35" stroke-linecap="round" stroke-linejoin="round" fill="none"/>
  <path d="M 208.92,24.67 Q 213.60,24.67 218.28,3.00" stroke="#56d364" stroke-width="1.35" stroke-linecap="round" stroke-linejoin="round" fill="none"/>
  <path d="M 218.28,3.00 Q 222.96,3.00 227.64,25.22" stroke="#56d364" stroke-width="1.35" stroke-linecap="round" stroke-linejoin="round" fill="none"/>
  <path d="M 227.64,25.22 Q 232.32,25.22 237.00,16.89" stroke="#3b8143" stroke-width="1.35" stroke-linecap="round" stroke-linejoin="round" fill="none"/>
</svg>