<svg width="240" height="32" viewBox="0 0 240 32" fill="none" xmlns="http://www.w3.org/2000/svg" role="img" aria-label="GitHub activity sparkline">
  <line x1="3" y1="28" x2="237" y2="28" stroke="#30363d" stroke-width="0.8"/>
  <path d="M 3.00,28.00 L 3.00,26.99 L 12.36,27.32 L 21.72,28.00 L 31.08,27.66 L 40.44,14.15 L 49.80,23.95 L 59.16,25.64 L 68.52,17.53 L 77.88,23.95 L 87.24,21.92 L 96.60,26.65 L 105.96,27.66 L 115.32,25.30 L 124.68,23.27 L 134.04,26.65 L 143.40,26.31 L 152.76,22.26 L 162.12,23.95 L 171.48,22.59 L 180.84,23.61 L 190.20,22.59 L 199.56,25.30 L 208.92,3.00 L 218.28,20.91 L 227.64,20.57 L 237.00,21.24 L 237.00,28.00 Z" fill="#2ea043" fill-opacity="0.04"/>
  <path d="M 3.00,26.99 L 12.36,27.32 L 21.72,28.00 L 31.08,27.66 L 40.44,14.15 L 49.80,23.95 L 59.16,25.64 L 68.52,17.53 L 77.88,23.95 L 87.24,21.92 L 96.60,26.65 L 105.96,27.66 L 115.32,25.30 L 124.68,23.27 L 134.04,26.65 L 143.40,26.31 L 152.76,22.26 L 162.12,23.95 L 171.48,22.59 L 180.84,23.61 L 190.20,22.59 L 199.56,25.30 L 208.92,3.00 L 218.28,20.91 L 227.64,20.57 L 237.00,21.24" stroke="#56d364" stroke-width="1.15" stroke-linecap="round" stroke-linejoin="round" fill="none"/>
</svg>