<svg width="360" height="72" viewBox="0 0 360 72" fill="none" xmlns="http://www.w3.org/2000/svg" role="img" aria-label="GitHub activity sparkline">
  <rect x="0" y="0" width="360" height="72" rx="12" fill="#0d1117"/>
  <path d="M 8.00,64.00 L 8.00,60.27 Q 9.93,60.27 11.87,45.33 Q 13.80,45.33 15.73,64.00 Q 17.66,64.00 19.60,64.00 Q 21.53,64.00 23.46,64.00 Q 25.39,64.00 27.33,60.27 Q 29.26,60.27 31.19,64.00 Q 33.12,64.00 35.06,64.00 Q 36.99,64.00 38.92,49.07 Q 40.85,49.07 42.79,64.00 Q 44.72,64.00 46.65,64.00 Q 48.58,64.00 50.52,64.00 Q 52.45,64.00 54.38,60.27 Q 56.31,60.27 58.25,60.27 Q 60.18,60.27 62.11,52.80 Q 64.04,52.80 65.98,64.00 Q 67.91,64.00 69.84,56.53 Q 71.78,56.53 73.71,64.00 Q 75.64,64.00 77.57,64.00 Q 79.51,64.00 81.44,64.00 Q 83.37,64.00 85.30,64.00 Q 87.24,64.00 89.17,56.53 Q 91.10,56.53 93.03,60.27 Q 94.97,60.27 96.90,64.00 Q 98.83,64.00 100.76,64.00 Q 102.70,64.00 104.63,60.27 Q 106.56,60.27 108.49,56.53 Q 110.43,56.53 112.36,60.27 Q 114.29,60.27 116.22,64.00 Q 118.16,64.00 120.09,45.33 Q 122.02,45.33 123.96,64.00 Q 125.89,64.00 127.82,56.53 Q 129.75,56.53 131.69,60.27 Q 133.62,60.27 135.55,60.27 Q 137.48,60.27 139.42,49.07 Q 141.35,49.07 143.28,56.53 Q 145.21,56.53 147.15,49.07 Q 149.08,49.07 151.01,52.80 Q 152.94,52.80 154.88,64.00 Q 156.81,64.00 158.74,49.07 Q 160.67,49.07 162.61,64.00 Q 164.54,64.00 166.47,64.00 Q 168.40,64.00 170.34,60.27 Q 172.27,60.27 174.20,45.33 Q 176.13,45.33 178.07,37.87 Q 180.00,37.87 181.93,52.80 Q 183.87,52.80 185.80,64.00 Q 187.73,64.00 189.66,60.27 Q 191.60,60.27 193.53,64.00 Q 195.46,64.00 197.39,64.00 Q 199.33,64.00 201.26,22.93 Q 203.19,22.93 205.12,56.53 Q 207.06,56.53 208.99,64.00 Q 210.92,64.00 212.85,64.00 Q 214.79,64.00 216.72,64.00 Q 218.65,64.00 220.58,64.00 Q 222.52,64.00 224.45,64.00 Q 226.38,64.00 228.31,64.00 Q 230.25,64.00 232.18,52.80 Q 234.11,52.80 236.04,60.27 Q 237.98,60.27 239.91,56.53 Q 241.84,56.53 243.78,60.27 Q 245.71,60.27 247.64,49.07 Q 249.57,49.07 251.51,45.33 Q 253.44,45.33 255.37,56.53 Q 257.30,56.53 259.24,64.00 Q 261.17,64.00 263.10,64.00 Q 265.03,64.00 266.97,64.00 Q 268.90,64.00 270.83,49.07 Q 272.76,49.07 274.70,64.00 Q 276.63,64.00 278.56,64.00 Q 280.49,64.00 282.43,41.60 Q 284.36,41.60 286.29,60.27 Q 288.22,60.27 290.16,26.67 Q 292.09,26.67 294.02,56.53 Q 295.96,56.53 297.89,8.00 Q 299.82,8.00 301.75,30.40 Q 303.69,30.40 305.62,56.53 Q 307.55,56.53 309.48,60.27 Q 311.42,60.27 313.35,60.27 Q 315.28,60.27 317.21,64.00 Q 319.15,64.00 321.08,64.00 Q 323.01,64.00 324.94,56.53 Q 326.88,56.53 328.81,60.27 Q 330.74,60.27 332.67,64.00 Q 334.61,64.00 336.54,64.00 Q 338.47,64.00 340.40,64.00 Q 342.34,64.00 344.27,34.13 Q 346.20,34.13 348.13,56.53 Q 350.07,56.53 352.00,60.27 L 352.00,64.00 Z" fill="#2da44e" fill-opacity="0.14"/>
  <path d="M 8.00,60.27 Q 9.93,60.27 11.87,45.33 Q 13.80,45.33 15.73,64.00 Q 17.66,64.00 19.60,64.00 Q 21.53,64.00 23.46,64.00 Q 25.39,64.00 27.33,60.27 Q 29.26,60.27 31.19,64.00 Q 33.12,64.00 35.06,64.00 Q 36.99,64.00 38.92,49.07 Q 40.85,49.07 42.79,64.00 Q 44.72,64.00 46.65,64.00 Q 48.58,64.00 50.52,64.00 Q 52.45,64.00 54.38,60.27 Q 56.31,60.27 58.25,60.27 Q 60.18,60.27 62.11,52.80 Q 64.04,52.80 65.98,64.00 Q 67.91,64.00 69.84,56.53 Q 71.78,56.53 73.71,64.00 Q 75.64,64.00 77.57,64.00 Q 79.51,64.00 81.44,64.00 Q 83.37,64.00 85.30,64.00 Q 87.24,64.00 89.17,56.53 Q 91.10,56.53 93.03,60.27 Q 94.97,60.27 96.90,64.00 Q 98.83,64.00 100.76,64.00 Q 102.70,64.00 104.63,60.27 Q 106.56,60.27 108.49,56.53 Q 110.43,56.53 112.36,60.27 Q 114.29,60.27 116.22,64.00 Q 118.16,64.00 120.09,45.33 Q 122.02,45.33 123.96,64.00 Q 125.89,64.00 127.82,56.53 Q 129.75,56.53 131.69,60.27 Q 133.62,60.27 135.55,60.27 Q 137.48,60.27 139.42,49.07 Q 141.35,49.07 143.28,56.53 Q 145.21,56.53 147.15,49.07 Q 149.08,49.07 151.01,52.80 Q 152.94,52.80 154.88,64.00 Q 156.81,64.00 158.74,49.07 Q 160.67,49.07 162.61,64.00 Q 164.54,64.00 166.47,64.00 Q 168.40,64.00 170.34,60.27 Q 172.27,60.27 174.20,45.33 Q 176.13,45.33 178.07,37.87 Q 180.00,37.87 181.93,52.80 Q 183.87,52.80 185.80,64.00 Q 187.73,64.00 189.66,60.27 Q 191.60,60.27 193.53,64.00 Q 195.46,64.00 197.39,64.00 Q 199.33,64.00 201.26,22.93 Q 203.19,22.93 205.12,56.53 Q 207.06,56.53 208.99,64.00 Q 210.92,64.00 212.85,64.00 Q 214.79,64.00 216.72,64.00 Q 218.65,64.00 220.58,64.00 Q 222.52,64.00 224.45,64.00 Q 226.38,64.00 228.31,64.00 Q 230.25,64.00 232.18,52.80 Q 234.11,52.80 236.04,60.27 Q 237.98,60.27 239.91,56.53 Q 241.84,56.53 243.78,60.27 Q 245.71,60.27 247.64,49.07 Q 249.57,49.07 251.51,45.33 Q 253.44,45.33 255.37,56.53 Q 257.30,56.53 259.24,64.00 Q 261.17,64.00 263.10,64.00 Q 265.03,64.00 266.97,64.00 Q 268.90,64.00 270.83,49.07 Q 272.76,49.07 274.70,64.00 Q 276.63,64.00 278.56,64.00 Q 280.49,64.00 282.43,41.60 Q 284.36,41.60 286.29,60.27 Q 288.22,60.27 290.16,26.67 Q 292.09,26.67 294.02,56.53 Q 295.96,56.53 297.89,8.00 Q 299.82,8.00 301.75,30.40 Q 303.69,30.40 305.62,56.53 Q 307.55,56.53 309.48,60.27 Q 311.42,60.27 313.35,60.27 Q 315.28,60.27 317.21,64.00 Q 319.15,64.00 321.08,64.00 Q 323.01,64.00 324.94,56.53 Q 326.88,56.53 328.81,60.27 Q 330.74,60.27 332.67,64.00 Q 334.61,64.00 336.54,64.00 Q 338.47,64.00 340.40,64.00 Q 342.34,64.00 344.27,34.13 Q 346.20,34.13 348.13,56.53 Q 350.07,56.53 352.00,60.27" stroke="#2da44e" stroke-width="2.2" stroke-linecap="round" stroke-linejoin="round" fill="none"/>
  <circle cx="8.00" cy="60.27" r="1.8" fill="#2da44e" />
<circle cx="11.87" cy="45.33" r="1.8" fill="#2da44e" />
<circle cx="15.73" cy="64.00" r="1.8" fill="#2da44e" />
<circle cx="19.60" cy="64.00" r="1.8" fill="#2da44e" />
<circle cx="23.46" cy="64.00" r="1.8" fill="#2da44e" />
<circle cx="27.33" cy="60.27" r="1.8" fill="#2da44e" />
<circle cx="31.19" cy="64.00" r="1.8" fill="#2da44e" />
<circle cx="35.06" cy="64.00" r="1.8" fill="#2da44e" />
<circle cx="38.92" cy="49.07" r="1.8" fill="#2da44e" />
<circle cx="42.79" cy="64.00" r="1.8" fill="#2da44e" />
<circle cx="46.65" cy="64.00" r="1.8" fill="#2da44e" />
<circle cx="50.52" cy="64.00" r="1.8" fill="#2da44e" />
<circle cx="54.38" cy="60.27" r="1.8" fill="#2da44e" />
<circle cx="58.25" cy="60.27" r="1.8" fill="#2da44e" />
<circle cx="62.11" cy="52.80" r="1.8" fill="#2da44e" />
<circle cx="65.98" cy="64.00" r="1.8" fill="#2da44e" />
<circle cx="69.84" cy="56.53" r="1.8" fill="#2da44e" />
<circle cx="73.71" cy="64.00" r="1.8" fill="#2da44e" />
<circle cx="77.57" cy="64.00" r="1.8" fill="#2da44e" />
<circle cx="81.44" cy="64.00" r="1.8" fill="#2da44e" />
<circle cx="85.30" cy="64.00" r="1.8" fill="#2da44e" />
<circle cx="89.17" cy="56.53" r="1.8" fill="#2da44e" />
<circle cx="93.03" cy="60.27" r="1.8" fill="#2da44e" />
<circle cx="96.90" cy="64.00" r="1.8" fill="#2da44e" />
<circle cx="100.76" cy="64.00" r="1.8" fill="#2da44e" />
<circle cx="104.63" cy="60.27" r="1.8" fill="#2da44e" />
<circle cx="108.49" cy="56.53" r="1.8" fill="#2da44e" />
<circle cx="112.36" cy="60.27" r="1.8" fill="#2da44e" />
<circle cx="116.22" cy="64.00" r="1.8" fill="#2da44e" />
<circle cx="120.09" cy="45.33" r="1.8" fill="#2da44e" />
<circle cx="123.96" cy="64.00" r="1.8" fill="#2da44e" />
<circle cx="127.82" cy="56.53" r="1.8" fill="#2da44e" />
<circle cx="131.69" cy="60.27" r="1.8" fill="#2da44e" />
<circle cx="135.55" cy="60.27" r="1.8" fill="#2da44e" />
<circle cx="139.42" cy="49.07" r="1.8" fill="#2da44e" />
<circle cx="143.28" cy="56.53" r="1.8" fill="#2da44e" />
<circle cx="147.15" cy="49.07" r="1.8" fill="#2da44e" />
<circle cx="151.01" cy="52.80" r="1.8" fill="#2da44e" />
<circle cx="154.88" cy="64.00" r="1.8" fill="#2da44e" />
<circle cx="158.74" cy="49.07" r="1.8" fill="#2da44e" />
<circle cx="162.61" cy="64.00" r="1.8" fill="#2da44e" />
<circle cx="166.47" cy="64.00" r="1.8" fill="#2da44e" />
<circle cx="170.34" cy="60.27" r="1.8" fill="#2da44e" />
<circle cx="174.20" cy="45.33" r="1.8" fill="#2da44e" />
<circle cx="178.07" cy="37.87" r="1.8" fill="#2da44e" />
<circle cx="181.93" cy="52.80" r="1.8" fill="#2da44e" />
<circle cx="185.80" cy="64.00" r="1.8" fill="#2da44e" />
<circle cx="189.66" cy="60.27" r="1.8" fill="#2da44e" />
<circle cx="193.53" cy="64.00" r="1.8" fill="#2da44e" />
<circle cx="197.39" cy="64.00" r="1.8" fill="#2da44e" />
<circle cx="201.26" cy="22.93" r="1.8" fill="#2da44e" />
<circle cx="205.12" cy="56.53" r="1.8" fill="#2da44e" />
<circle cx="208.99" cy="64.00" r="1.8" fill="#2da44e" />
<circle cx="212.85" cy="64.00" r="1.8" fill="#2da44e" />
<circle cx="216.72" cy="64.00" r="1.8" fill="#2da44e" />
<circle cx="220.58" cy="64.00" r="1.8" fill="#2da44e" />
<circle cx="224.45" cy="64.00" r="1.8" fill="#2da44e" />
<circle cx="228.31" cy="64.00" r="1.8" fill="#2da44e" />
<circle cx="232.18" cy="52.80" r="1.8" fill="#2da44e" />
<circle cx="236.04" cy="60.27" r="1.8" fill="#2da44e" />
<circle cx="239.91" cy="56.53" r="1.8" fill="#2da44e" />
<circle cx="243.78" cy="60.27" r="1.8" fill="#2da44e" />
<circle cx="247.64" cy="49.07" r="1.8" fill="#2da44e" />
<circle cx="251.51" cy="45.33" r="1.8" fill="#2da44e" />
<circle cx="255.37" cy="56.53" r="1.8" fill="#2da44e" />
<circle cx="259.24" cy="64.00" r="1.8" fill="#2da44e" />
<circle cx="263.10" cy="64.00" r="1.8" fill="#2da44e" />
<circle cx="266.97" cy="64.00" r="1.8" fill="#2da44e" />
<circle cx="270.83" cy="49.07" r="1.8" fill="#2da44e" />
<circle cx="274.70" cy="64.00" r="1.8" fill="#2da44e" />
<circle cx="278.56" cy="64.00" r="1.8" fill="#2da44e" />
<circle cx="282.43" cy="41.60" r="1.8" fill="#2da44e" />
<circle cx="286.29" cy="60.27" r="1.8" fill="#2da44e" />
<circle cx="290.16" cy="26.67" r="1.8" fill="#2da44e" />
<circle cx="294.02" cy="56.53" r="1.8" fill="#2da44e" />
<circle cx="297.89" cy="8.00" r="1.8" fill="#2da44e" />
<circle cx="301.75" cy="30.40" r="1.8" fill="#2da44e" />
<circle cx="305.62" cy="56.53" r="1.8" fill="#2da44e" />
<circle cx="309.48" cy="60.27" r="1.8" fill="#2da44e" />
<circle cx="313.35" cy="60.27" r="1.8" fill="#2da44e" />
<circle cx="317.21" cy="64.00" r="1.8" fill="#2da44e" />
<circle cx="321.08" cy="64.00" r="1.8" fill="#2da44e" />
<circle cx="324.94" cy="56.53" r="1.8" fill="#2da44e" />
<circle cx="328.81" cy="60.27" r="1.8" fill="#2da44e" />
<circle cx="332.67" cy="64.00" r="1.8" fill="#2da44e" />
<circle cx="336.54" cy="64.00" r="1.8" fill="#2da44e" />
<circle cx="340.40" cy="64.00" r="1.8" fill="#2da44e" />
<circle cx="344.27" cy="34.13" r="1.8" fill="#2da44e" />
<circle cx="348.13" cy="56.53" r="1.8" fill="#2da44e" />
<circle cx="352.00" cy="60.27" r="1.8" fill="#2da44e" />
  <text x="8" y="62" fill="#8b949e" font-family="system-ui, -apple-system, Segoe UI, sans-serif" font-size="9">
    Last 90 days • 164 contributions • max 15/day
  </text>
</svg>