<svg width="240" height="32" viewBox="0 0 240 32" fill="none" xmlns="http://www.w3.org/2000/svg" role="img" aria-label="GitHub activity sparkline">
  <line x1="3" y1="28" x2="237" y2="28" stroke="#30363d" stroke-width="0.8"/>
  <path d="M 3.00,28.00 L 3.00,26.89 Q 7.68,26.89 12.36,28.00 Q 17.04,28.00 21.72,28.00 Q 26.40,28.00 31.08,28.00 Q 35.76,28.00 40.44,14.11 Q 45.12,14.11 49.80,24.11 Q 54.48,24.11 59.16,25.78 Q 63.84,25.78 68.52,15.22 Q 73.20,15.22 77.88,26.33 Q 82.56,26.33 87.24,19.11 Q 91.92,19.11 96.60,25.78 Q 101.28,25.78 105.96,27.44 Q 110.64,27.44 115.32,24.67 Q 120.00,24.67 124.68,23.00 Q 129.36,23.00 134.04,25.78 Q 138.72,25.78 143.40,25.22 Q 148.08,25.22 152.76,19.67 Q 157.44,19.67 162.12,21.33 Q 166.80,21.33 171.48,19.11 Q 176.16,19.11 180.84,20.78 Q 185.52,20.78 190.20,19.11 Q 194.88,19.11 199.56,24.67 Q 204.24,24.67 208.92,3.00 Q 213.60,3.00 218.28,25.22 Q 222.96,25.22 227.64,16.89 Q 232.32,16.89 237.00,27.44 L 237.00,28.00 Z" fill="#2ea043" fill-opacity="0.06"/>
  <path d="M 3.00,26.89 Q 7.68,26.89 12.36,28.00" stroke="#29462b" stroke-width="1.35" stroke-linecap="round" stroke-linejoin="round" fill="none"/>
  <path d="M 12.36,28.00 Q 17.04,28.00 21.72,28.00" stroke="#274029" stroke-width="1.35" stroke-linecap="round" stroke-linejoin="round" fill="none"/>
  <path d="M 21.72,28.00 Q 26.40,28.00 31.08,28.00" stroke="#274029" stroke-width="1.35" stroke-linecap="round" stroke-linejoin="round" fill="none"/>
  <path d="M 31.08,28.00 Q 35.76,28.00 40.44,14.11" stroke="#419149" stroke-width="1.35" stroke-linecap="round" stroke-linejoin="round" fill="none"/>
  <path d="M 40.44,14.11 Q 45.12,14.11 49.80,24.11" stroke="#419149" stroke-width="1.35" stroke-linecap="round" stroke-linejoin="round" fill="none"/>
  <path d="M 49.80,24.11 Q 54.48,24.11 59.16,25.78" stroke="#2e5632" stroke-width="1.35" stroke-linecap="round" stroke-linejoin="round" fill="none"/>
  <path d="M 59.16,25.78 Q 63.84,25.78 68.52,15.22" stroke="#3f8b47" stroke-width="1.35" stroke-linecap="round" stroke-linejoin="round" fill="none"/>
  <path d="M 68.52,15.22 Q 73.20,15.22 77.88,26.33" stroke="#3f8b47" stroke-width="1.35" stroke-linecap="round" stroke-linejoin="round" fill="none"/>
  <path d="M 77.88,26.33 Q 82.56,26.33 87.24,19.11" stroke="#37743d" stroke-width="1.35" stroke-linecap="round" stroke-linejoin="round" fill="none"/>
  <path d="M 87.24,19.11 Q 91.92,19.11 96.60,25.78" stroke="#37743d" stroke-width="1.35" stroke-linecap="round" stroke-linejoin="round" fill="none"/>
  <path d="M 96.60,25.78 Q 101.28,25.78 105.96,27.44" stroke="#2b4d2e" stroke-width="1.35" stroke-linecap="round" stroke-linejoin="round" fill="none"/>
  <path d="M 105.96,27.44 Q 110.64,27.44 115.32,24.67" stroke="#2d5330" stroke-width="1.35" stroke-linecap="round" stroke-linejoin="round" fill="none"/>
  <path d="M 115.32,24.67 Q 120.00,24.67 124.68,23.00" stroke="#305d34" stroke-width="1.35" stroke-linecap="round" stroke-linejoin="round" fill="none"/>
  <path d="M 124.68,23.00 Q 129.36,23.00 134.04,25.78" stroke="#305d34" stroke-width="1.35" stroke-linecap="round" stroke-linejoin="round" fill="none"/>
  <path d="M 134.04,25.78 Q 138.72,25.78 143.40,25.22" stroke="#2c502f" stroke-width="1.35" stroke-linecap="round" stroke-linejoin="round" fill="none"/>
  <path d="M 143.40,25.22 Q 148.08,25.22 152.76,19.67" stroke="#36713c" stroke-width="1.35" stroke-linecap="round" stroke-linejoin="round" fill="none"/>
  <path d="M 152.76,19.67 Q 157.44,19.67 162.12,21.33" stroke="#36713c" stroke-width="1.35" stroke-linecap="round" stroke-linejoin="round" fill="none"/>
  <path d="M 162.12,21.33 Q 166.80,21.33 171.48,19.11" stroke="#37743d" stroke-width="1.35" stroke-linecap="round" stroke-linejoin="round" fill="none"/>
  <path d="M 171.48,19.11 Q 176.16,19.11 180.84,20.78" stroke="#37743d" stroke-width="1.35" stroke-linecap="round" stroke-linejoin="round" fill="none"/>
  <path d="M 180.84,20.78 Q 185.52,20.78 190.20,19.11" stroke="#37743d" stroke-width="1.35" stroke-linecap="round" stroke-linejoin="round" fill="none"/>
  <path d="M 190.20,19.11 Q 194.88,19.11 199.56,24.67" stroke="#37743d" stroke-width="1.35" stroke-linecap="round" stroke-linejoin="round" fill="none"/>
  <path d="M 199.56,24.67 Q 204.24,24.67 208.92,3.00" stroke="#56d364" stroke-width="1.35" stroke-linecap="round" stroke-linejoin="round" fill="none"/>
  <path d="M 208.92,3.00 Q 213.60,3.00 218.28,25.22" stroke="#56d364" stroke-width="1.35" stroke-linecap="round" stroke-linejoin="round" fill="none"/>
  <path d="M 218.28,25.22 Q 222.96,25.22 227.64,16.89" stroke="#3b8143" stroke-width="1.35" stroke-linecap="round" stroke-linejoin="round" fill="none"/>
  <path d="M 227.64,16.89 Q 232.32,16.89 237.00,27.44" stroke="#3b8143" stroke-width="1.35" stroke-linecap="round" stroke-linejoin="round" fill="none"/>
</svg>