<svg width="180" height="30" viewBox="0 0 180 30" fill="none" xmlns="http://www.w3.org/2000/svg" role="img" aria-label="GitHub activity sparkline">
  <defs>
    <linearGradient id="sparkGradient" x1="3" y1="0" x2="177" y2="0" gradientUnits="userSpaceOnUse">
      <stop offset="0.00%" stop-color="#335133"/>
      <stop offset="1.96%" stop-color="#2c482d"/>
      <stop offset="3.92%" stop-color="#2d492e"/>
      <stop offset="5.88%" stop-color="#2c482d"/>
      <stop offset="7.84%" stop-color="#355435"/>
      <stop offset="9.80%" stop-color="#314e31"/>
      <stop offset="11.76%" stop-color="#2e4b2f"/>
      <stop offset="13.73%" stop-color="#314f32"/>
      <stop offset="15.69%" stop-color="#355435"/>
      <stop offset="17.65%" stop-color="#2f4c30"/>
      <stop offset="19.61%" stop-color="#385838"/>
      <stop offset="21.57%" stop-color="#395a39"/>
      <stop offset="23.53%" stop-color="#345234"/>
      <stop offset="25.49%" stop-color="#345334"/>
      <stop offset="27.45%" stop-color="#2e4b2f"/>
      <stop offset="29.41%" stop-color="#2e4b2f"/>
      <stop offset="31.37%" stop-color="#314e31"/>
      <stop offset="33.33%" stop-color="#314e31"/>
      <stop offset="35.29%" stop-color="#2e4a2e"/>
      <stop offset="37.25%" stop-color="#304d30"/>
      <stop offset="39.22%" stop-color="#2e4b2f"/>
      <stop offset="41.18%" stop-color="#314f32"/>
      <stop offset="43.14%" stop-color="#2e4a2e"/>
      <stop offset="45.10%" stop-color="#2d492e"/>
      <stop offset="47.06%" stop-color="#2c482d"/>
      <stop offset="49.02%" stop-color="#2c482d"/>
      <stop offset="50.98%" stop-color="#4a6f47"/>
      <stop offset="52.94%" stop-color="#345334"/>
      <stop offset="54.90%" stop-color="#314e31"/>
      <stop offset="56.86%" stop-color="#426641"/>
      <stop offset="58.82%" stop-color="#345334"/>
      <stop offset="60.78%" stop-color="#395938"/>
      <stop offset="62.75%" stop-color="#2e4b2f"/>
      <stop offset="64.71%" stop-color="#2c482d"/>
      <stop offset="66.67%" stop-color="#314f32"/>
      <stop offset="68.63%" stop-color="#365536"/>
      <stop offset="70.59%" stop-color="#2e4b2f"/>
      <stop offset="72.55%" stop-color="#2f4c30"/>
      <stop offset="74.51%" stop-color="#385838"/>
      <stop offset="76.47%" stop-color="#345334"/>
      <stop offset="78.43%" stop-color="#375737"/>
      <stop offset="80.39%" stop-color="#355435"/>
      <stop offset="82.35%" stop-color="#375737"/>
      <stop offset="84.31%" stop-color="#314f32"/>
      <stop offset="86.27%" stop-color="#669561"/>
      <stop offset="88.24%" stop-color="#426641"/>
      <stop offset="90.20%" stop-color="#5e8b5a"/>
      <stop offset="92.16%" stop-color="#5e8b5a"/>
      <stop offset="94.12%" stop-color="#3f623e"/>
      <stop offset="96.08%" stop-color="#345234"/>
      <stop offset="98.04%" stop-color="#2c482d"/>
      <stop offset="100.00%" stop-color="#2f4c30"/>
    </linearGradient>
  </defs>
  <line x1="3" y1="30" x2="177" y2="30" stroke="#30363d" stroke-width="0.8"/>
  <path d="M 3.00,30.00 L 3.00,26.20 L 6.41,30.00 L 9.82,29.24 L 13.24,30.00 L 16.65,25.06 L 20.06,27.34 L 23.47,28.48 L 26.88,26.96 L 30.29,25.06 L 33.71,28.10 L 37.12,23.54 L 40.53,22.78 L 43.94,25.82 L 47.35,25.44 L 50.76,28.48 L 54.18,28.48 L 57.59,27.34 L 61.00,27.34 L 64.41,28.86 L 67.82,27.72 L 71.24,28.48 L 74.65,26.96 L 78.06,28.86 L 81.47,29.24 L 84.88,30.00 L 88.29,29.62 L 91.71,14.43 L 95.12,25.44 L 98.53,27.34 L 101.94,18.23 L 105.35,25.44 L 108.76,23.16 L 112.18,28.48 L 115.59,29.62 L 119.00,26.96 L 122.41,24.68 L 125.82,28.48 L 129.24,28.10 L 132.65,23.54 L 136.06,25.44 L 139.47,23.92 L 142.88,25.06 L 146.29,23.92 L 149.71,26.96 L 153.12,0.00 L 156.53,18.23 L 159.94,3.80 L 163.35,3.80 L 166.76,19.75 L 170.18,25.82 L 173.59,30.00 L 177.00,28.10 L 177.00,30.00 Z" fill="#2ea043" fill-opacity="0.04"/>
  <path d="M 3.00,26.20 L 6.41,30.00 L 9.82,29.24 L 13.24,30.00 L 16.65,25.06 L 20.06,27.34 L 23.47,28.48 L 26.88,26.96 L 30.29,25.06 L 33.71,28.10 L 37.12,23.54 L 40.53,22.78 L 43.94,25.82 L 47.35,25.44 L 50.76,28.48 L 54.18,28.48 L 57.59,27.34 L 61.00,27.34 L 64.41,28.86 L 67.82,27.72 L 71.24,28.48 L 74.65,26.96 L 78.06,28.86 L 81.47,29.24 L 84.88,30.00 L 88.29,29.62 L 91.71,14.43 L 95.12,25.44 L 98.53,27.34 L 101.94,18.23 L 105.35,25.44 L 108.76,23.16 L 112.18,28.48 L 115.59,29.62 L 119.00,26.96 L 122.41,24.68 L 125.82,28.48 L 129.24,28.10 L 132.65,23.54 L 136.06,25.44 L 139.47,23.92 L 142.88,25.06 L 146.29,23.92 L 149.71,26.96 L 153.12,0.00 L 156.53,18.23 L 159.94,3.80 L 163.35,3.80 L 166.76,19.75 L 170.18,25.82 L 173.59,30.00 L 177.00,28.10" stroke="url(#sparkGradient)" stroke-width="2.5" stroke-linecap="round" stroke-linejoin="round" fill="none"/>
</svg>